<?xml version="1.0" encoding="utf-8"?>
<!-- Generator: Adobe Illustrator 24.3.0, SVG Export Plug-In . SVG Version: 6.00 Build 0)  -->
<svg version="1.0" id="katman_1" xmlns="http://www.w3.org/2000/svg" xmlns:xlink="http://www.w3.org/1999/xlink" x="0px" y="0px"
	 viewBox="0 0 138.89 140.02" style="enable-background:new 0 0 138.89 140.02;" xml:space="preserve">
<style type="text/css">
	.st0{fill:#FFE500;}
	.st1{fill:#FDF28E;}
	.st2{fill:none;stroke:#45413C;stroke-width:3.7587;stroke-linecap:round;stroke-linejoin:round;}
	.st3{opacity:0.15;fill:#45413C;enable-background:new    ;}
</style>
<path class="st0" d="M81.26,99.5c0.01-1.29-0.24-2.56-0.73-3.75c-0.49-1.19-1.21-2.27-2.12-3.18c-0.91-0.91-1.99-1.63-3.18-2.13
	c-1.19-0.49-2.46-0.75-3.75-0.75h9.77c2.77,0,5.43-1.1,7.39-3.06c1.96-1.96,3.06-4.62,3.06-7.39c0-2.77-1.1-5.43-3.06-7.39
	c-1.96-1.96-4.62-3.06-7.39-3.06c2.77,0,5.43-1.1,7.39-3.06c1.96-1.96,3.06-4.62,3.06-7.39s-1.1-5.43-3.06-7.39
	c-1.96-1.96-4.62-3.06-7.39-3.06h46.65c2.41,0,4.73-0.96,6.43-2.66c1.71-1.71,2.66-4.02,2.66-6.43c0-2.41-0.96-4.73-2.66-6.43
	c-1.71-1.71-4.02-2.66-6.43-2.66H58.52c6.42-0.01,12.68-2.03,17.89-5.79c2.96-2,5.1-5.01,6.01-8.47c0.91-3.46,0.54-7.13-1.05-10.33
	c-0.36-0.71-0.85-1.34-1.46-1.85c-0.61-0.51-1.31-0.9-2.07-1.13c-0.76-0.23-1.56-0.31-2.35-0.22C74.71,2,73.95,2.24,73.26,2.63
	L58.22,10.9c-6.98,3.81-14.38,6.78-22.06,8.83c-11.1,3.08-20.64,10.2-26.76,19.96c-4.88,7.57-7.49,16.37-7.52,25.37v15.52
	c0,7.58,3.01,14.84,8.37,20.2c5.36,5.36,12.62,8.37,20.2,8.37h41.05c2.58,0.01,5.05-1,6.88-2.81
	C80.2,104.53,81.24,102.07,81.26,99.5L81.26,99.5z"/>
<path class="st1" d="M77.35,36.8h50.55c1.78-0.01,3.52,0.51,5,1.48c1.48,0.98,2.65,2.37,3.34,4c0.5-1.12,0.76-2.34,0.75-3.57
	c-0.01-2.41-0.97-4.72-2.68-6.42c-1.7-1.7-4.01-2.67-6.42-2.68H59.12C63.82,35.45,67.54,36.8,77.35,36.8z"/>
<path class="st1" d="M36.16,26.95c7.72-2.14,15.17-5.18,22.18-9.06l15.03-8.31c0.7-0.38,1.46-0.63,2.25-0.71
	c0.79-0.08,1.59-0.01,2.35,0.22c0.76,0.23,1.47,0.61,2.08,1.12c0.61,0.51,1.11,1.14,1.48,1.84c0.48,1,0.86,2.04,1.13,3.12
	c0.84-3.43,0.44-7.05-1.13-10.22c-0.36-0.71-0.87-1.33-1.48-1.84C79.44,2.61,78.73,2.23,77.97,2c-0.76-0.23-1.56-0.31-2.35-0.22
	c-0.79,0.08-1.56,0.32-2.25,0.71l-15.03,8.27c-7.01,3.87-14.45,6.89-22.18,8.98c-11.1,3.08-20.64,10.2-26.76,19.96
	c-4.88,7.57-7.49,16.37-7.52,25.37v7.29c0.04-9,2.64-17.8,7.52-25.37C15.5,37.2,25.05,30.05,36.16,26.95L36.16,26.95z"/>
<path class="st2" d="M81.26,99.5c0.01-1.29-0.24-2.56-0.73-3.75c-0.49-1.19-1.21-2.27-2.12-3.18c-0.91-0.91-1.99-1.63-3.18-2.13
	c-1.19-0.49-2.46-0.75-3.75-0.75h9.77c2.77,0,5.43-1.1,7.39-3.06c1.96-1.96,3.06-4.62,3.06-7.39c0-2.77-1.1-5.43-3.06-7.39
	c-1.96-1.96-4.62-3.06-7.39-3.06c2.77,0,5.43-1.1,7.39-3.06c1.96-1.96,3.06-4.62,3.06-7.39s-1.1-5.43-3.06-7.39
	c-1.96-1.96-4.62-3.06-7.39-3.06h46.65c2.41,0,4.73-0.96,6.43-2.66c1.71-1.71,2.66-4.02,2.66-6.43c0-2.41-0.96-4.73-2.66-6.43
	c-1.71-1.71-4.02-2.66-6.43-2.66H58.52c6.42-0.01,12.68-2.03,17.89-5.79c2.96-2,5.1-5.01,6.01-8.47c0.91-3.46,0.54-7.13-1.05-10.33
	c-0.36-0.71-0.85-1.34-1.46-1.85c-0.61-0.51-1.31-0.9-2.07-1.13c-0.76-0.23-1.56-0.31-2.35-0.22C74.71,2,73.95,2.24,73.26,2.63
	L58.22,10.9c-6.98,3.81-14.38,6.78-22.06,8.83c-11.1,3.08-20.64,10.2-26.76,19.96c-4.88,7.57-7.49,16.37-7.52,25.37v15.52
	c0,7.58,3.01,14.84,8.37,20.2c5.36,5.36,12.62,8.37,20.2,8.37h41.05c2.58,0.01,5.05-1,6.88-2.81
	C80.2,104.53,81.24,102.07,81.26,99.5L81.26,99.5z"/>
<path class="st2" d="M81.26,68.79h-7.86"/>
<path class="st2" d="M81.26,47.89h-7.86"/>
<path class="st2" d="M58.52,29.7h-6.99"/>
<path class="st3" d="M14.62,134.38c0,1.5,5.94,2.93,16.51,3.99c10.57,1.06,24.91,1.65,39.87,1.65s29.29-0.59,39.87-1.65
	c10.57-1.06,16.51-2.49,16.51-3.99s-5.94-2.93-16.51-3.99c-10.57-1.06-24.91-1.65-39.87-1.65s-29.29,0.59-39.87,1.65
	C20.56,131.45,14.62,132.88,14.62,134.38L14.62,134.38z"/>
</svg>
